<?xml version="1.0" standalone="no"?>
<!DOCTYPE svg PUBLIC "-//W3C//DTD SVG 20010904//EN"
 "http://www.w3.org/TR/2001/REC-SVG-20010904/DTD/svg10.dtd">
<svg version="1.0" xmlns="http://www.w3.org/2000/svg"
 width="1181.000000pt" height="1181.000000pt" viewBox="0 0 1181.000000 1181.000000"
 preserveAspectRatio="xMidYMid meet">
<metadata>
Created by potrace 1.11, written by Peter Selinger 2001-2013
</metadata>
<g transform="translate(0.000000,1181.000000) scale(0.100000,-0.100000)"
fill="#000000" stroke="none">
<path d="M8130 9277 l0 -179 547 -766 c300 -422 579 -810 619 -862 141 -186
279 -297 464 -371 158 -63 341 -107 1315 -315 193 -41 360 -76 373 -79 18 -5
22 -1 22 19 0 21 -7 27 -37 35 -43 11 -546 119 -873 187 -387 80 -578 138
-765 231 -173 87 -303 192 -407 328 -24 33 -290 443 -590 910 -300 468 -573
893 -607 945 l-61 95 0 -178z"/>
<path d="M5816 9384 c-127 -192 -343 -453 -516 -625 -433 -427 -883 -645
-1520 -733 -93 -13 -3304 -356 -3332 -356 -4 0 -8 -48 -8 -106 l0 -106 33 6
c17 3 383 51 812 106 2542 329 2655 344 2885 407 295 79 593 222 818 390 173
130 473 446 651 686 189 256 223 310 219 352 l-3 39 -39 -60z"/>
<path d="M8130 8853 l0 -161 362 -464 c668 -856 823 -1051 882 -1111 117 -116
281 -214 475 -281 161 -56 380 -106 1006 -231 319 -63 588 -117 598 -119 12
-3 17 2 17 18 0 20 -24 26 -522 125 -287 56 -583 118 -657 136 -338 84 -606
207 -790 364 -109 93 -209 229 -956 1296 -219 314 -402 574 -407 580 -4 5 -8
-64 -8 -152z"/>
<path d="M5768 8886 c-431 -559 -843 -886 -1325 -1050 -296 -101 -425 -119
-1533 -221 -1229 -113 -2460 -231 -2466 -237 -3 -3 -3 -50 -2 -104 l3 -99 355
42 c698 84 2141 253 2495 293 656 73 838 105 1113 195 364 120 614 278 911
575 165 164 253 268 417 486 102 136 124 172 124 200 0 19 -1 34 -2 34 -2 0
-42 -51 -90 -114z"/>
<path d="M8130 8422 l0 -153 217 -252 c612 -710 925 -1069 988 -1132 171 -169
381 -272 725 -355 103 -24 1248 -239 1373 -257 33 -5 37 -3 37 16 0 11 -4 21
-9 21 -15 0 -852 156 -1051 196 -339 67 -571 147 -765 262 -88 52 -214 152
-274 218 -29 31 -314 395 -634 807 -320 413 -587 758 -594 766 -10 13 -12 -15
-13 -137z"/>
<path d="M5759 8438 c-129 -155 -372 -396 -503 -501 -403 -321 -785 -474
-1361 -547 -88 -11 -878 -78 -1755 -150 -877 -72 -1619 -133 -1648 -136 l-52
-6 0 -104 0 -103 28 4 c27 5 2194 235 2212 235 6 0 10 -31 10 -75 l0 -75 -27
0 c-16 0 -521 -36 -1123 -80 -602 -44 -1096 -80 -1097 -80 -2 0 -3 -47 -3
-104 l0 -105 32 5 c31 4 2197 214 2211 214 4 0 7 -33 7 -74 l0 -74 -57 -6
c-32 -3 -101 -8 -153 -11 -209 -12 -1909 -125 -1972 -131 l-68 -6 0 -103 0
-104 33 5 c17 3 505 47 1082 99 578 52 1069 96 1093 98 l42 5 0 -82 0 -82
-262 -12 c-145 -7 -648 -33 -1118 -57 -470 -25 -858 -45 -862 -45 -5 0 -8 -47
-8 -105 l0 -105 43 5 c37 5 340 28 1815 140 183 14 346 25 362 25 l30 0 0 -78
0 -78 -322 -12 c-489 -19 -1709 -71 -1825 -78 l-103 -6 0 -102 0 -101 113 7
c673 47 2063 138 2095 138 l42 0 0 -74 0 -74 -72 -6 c-71 -5 -2007 -57 -2120
-56 l-58 0 0 -106 0 -106 93 6 c50 4 526 29 1057 56 531 27 995 52 1033 55
l67 5 0 -80 c0 -44 -1 -80 -2 -80 -11 -2 -2047 -39 -2135 -40 l-113 0 0 -105
0 -106 88 6 c48 3 510 23 1027 45 517 22 984 42 1038 45 l97 7 0 -81 0 -81
-337 0 c-186 0 -692 -3 -1125 -7 l-788 -6 0 -105 0 -104 132 6 c73 4 410 15
748 26 338 11 743 25 900 30 157 5 327 10 378 10 l92 0 0 -75 0 -75 -1125 0
-1125 0 0 -105 0 -106 137 6 c128 5 993 28 1548 40 132 3 313 8 403 11 l162 6
0 -88 0 -87 -432 6 c-665 11 -1580 27 -1705 30 l-113 3 0 -104 0 -104 787 6
c434 3 940 9 1126 12 l337 6 0 -82 0 -82 -182 6 c-101 4 -547 15 -993 26 -445
11 -870 22 -942 25 l-133 5 0 -105 0 -105 3505 0 3505 0 0 1590 0 1590 -985 0
c-542 0 -985 4 -985 8 0 5 35 39 78 75 42 36 128 115 190 176 103 100 112 112
112 146 l0 37 -112 -107 c-116 -110 -272 -233 -374 -295 l-58 -35 -203 -3
c-129 -2 -203 0 -203 7 0 5 8 12 19 16 29 9 246 155 352 236 163 125 286 237
436 399 126 136 143 158 143 188 0 34 -3 32 -182 -144 -348 -340 -626 -539
-937 -667 l-76 -31 -470 -4 c-258 -1 -466 0 -463 4 4 3 78 17 165 29 561 82
924 225 1268 500 217 174 405 364 608 619 64 80 87 116 87 137 0 16 -1 29 -3
29 -2 0 -46 -51 -98 -112z m-560 -1658 l83 -5 -65 -49 -65 -49 15 -50 c8 -28
19 -61 24 -74 14 -37 12 -37 -23 -11 -18 13 -47 35 -65 47 l-31 23 -61 -46
c-34 -26 -61 -44 -61 -40 0 4 9 39 21 78 l21 70 -24 21 c-14 11 -42 34 -64 52
l-39 32 81 0 81 1 23 78 22 77 23 -75 22 -75 82 -5z m-635 -76 l23 -69 74 -5
74 -5 -57 -44 c-32 -24 -58 -47 -58 -50 0 -4 11 -40 24 -79 l25 -71 -62 44
c-33 25 -65 45 -71 45 -5 0 -33 -18 -62 -40 -29 -22 -55 -40 -58 -40 -3 0 6
32 20 72 13 39 24 72 24 73 0 1 -28 21 -61 46 l-61 44 76 3 76 3 21 75 c12 41
24 73 26 71 2 -2 14 -35 27 -73z m1163 -76 l75 -3 -60 -44 -60 -43 24 -71 c13
-39 22 -72 21 -74 -2 -1 -30 17 -62 41 l-59 44 -63 -45 c-35 -25 -63 -41 -63
-35 0 5 9 35 20 67 11 32 20 63 20 69 -1 6 -26 29 -58 51 l-57 40 74 5 74 5
26 75 25 75 24 -77 24 -77 75 -3z m393 -378 l82 -5 -65 -48 -66 -48 25 -71
c13 -39 23 -73 21 -75 -2 -1 -31 17 -64 42 l-61 44 -65 -49 -65 -49 26 80 c23
69 25 82 12 89 -8 5 -39 27 -69 49 l-55 41 85 0 85 0 24 73 23 72 23 -70 22
-70 82 -5z m-1935 62 l20 -67 79 -3 79 -3 -62 -45 c-68 -51 -66 -45 -30 -152
l18 -52 -59 45 c-32 25 -64 45 -70 45 -6 0 -35 -18 -65 -40 -30 -22 -56 -40
-59 -40 -3 0 6 32 19 71 14 39 23 75 20 79 -2 4 -30 25 -61 46 l-57 39 76 3
76 3 23 69 c12 39 24 70 27 70 4 0 15 -30 26 -68z m-140 -527 l18 -64 80 -3
79 -3 -61 -44 c-33 -25 -61 -47 -61 -51 0 -4 11 -39 24 -79 15 -42 20 -69 13
-64 -7 4 -36 25 -65 46 l-53 40 -32 -23 c-18 -13 -47 -35 -64 -48 -18 -13 -33
-22 -33 -20 0 3 11 38 25 78 14 40 24 74 22 75 -1 1 -31 23 -67 49 l-64 46 81
0 82 0 22 69 c13 39 26 68 30 66 4 -3 15 -34 24 -70z m2121 2 l21 -62 77 -5
78 -5 -61 -44 c-33 -25 -61 -47 -61 -51 0 -4 11 -39 24 -78 l25 -72 -65 46
-65 47 -32 -23 c-18 -13 -47 -34 -64 -48 l-33 -24 16 53 c9 29 20 63 25 77 5
14 8 26 7 27 -2 1 -30 22 -62 46 l-60 44 77 3 76 3 22 69 c13 38 25 67 28 64
3 -3 15 -33 27 -67z m-1980 -541 l19 -65 79 -3 80 -3 -60 -44 c-32 -24 -61
-45 -63 -47 -2 -2 8 -37 22 -79 15 -43 21 -72 14 -68 -7 4 -36 24 -65 46 l-53
39 -52 -39 c-76 -57 -79 -58 -68 -30 5 13 16 47 25 75 l15 52 -65 50 -66 49
83 3 83 3 20 67 c10 37 22 65 26 63 4 -3 16 -34 26 -69z m1936 -66 l81 0 -66
-50 -66 -50 25 -72 c13 -39 24 -73 24 -76 0 -2 -15 7 -32 20 -18 13 -47 35
-64 47 l-32 23 -57 -42 c-31 -23 -58 -40 -61 -38 -2 3 5 31 16 63 11 32 20 63
20 70 0 6 -28 31 -61 56 l-61 44 80 3 80 3 17 62 c9 34 20 66 23 72 3 5 16
-23 30 -63 l24 -72 80 0z m-1455 -392 l75 -3 -60 -44 -60 -43 24 -71 c13 -39
22 -72 20 -75 -3 -2 -29 15 -59 37 -29 23 -58 41 -64 41 -5 0 -34 -18 -64 -40
-29 -23 -55 -37 -57 -32 -1 4 7 34 18 67 11 32 20 62 20 66 0 5 -26 28 -57 51
l-57 43 74 5 73 5 26 75 25 75 23 -77 24 -77 76 -3z m1061 0 l74 -3 -60 -44
-60 -43 24 -71 c13 -39 22 -72 21 -74 -2 -1 -30 17 -63 41 l-59 44 -62 -44
c-35 -25 -63 -41 -63 -36 0 5 9 35 20 67 11 32 20 63 20 69 0 6 -26 29 -58 51
l-57 40 74 5 74 5 25 75 26 75 25 -77 25 -77 74 -3z m-623 -66 l20 -67 74 -5
75 -5 -57 -44 c-31 -24 -57 -44 -57 -45 0 0 11 -36 24 -78 l24 -77 -58 44
c-32 25 -64 45 -71 45 -7 0 -36 -18 -65 -40 -29 -22 -55 -40 -58 -40 -3 0 6
32 20 72 13 39 24 73 24 74 0 1 -28 23 -62 48 l-62 46 77 0 76 0 22 70 c13 39
25 70 28 70 4 0 15 -30 26 -68z"/>
<path d="M8130 7998 l0 -143 372 -385 c580 -600 850 -866 953 -939 191 -134
386 -209 690 -265 105 -19 435 -79 735 -131 300 -53 555 -99 568 -102 18 -4
22 -1 22 18 0 24 -6 25 -418 97 -928 163 -1112 207 -1327 315 -224 112 -306
195 -1120 1132 -186 215 -369 425 -407 468 l-68 78 0 -143z"/>
<path d="M8130 7560 l0 -135 593 -542 c325 -298 612 -557 637 -575 152 -114
324 -185 595 -243 95 -21 1482 -255 1508 -255 4 0 7 10 7 23 0 23 -9 25 -532
112 -701 116 -852 147 -1068 216 -136 44 -341 147 -440 222 -75 57 -352 336
-1202 1212 l-97 100 -1 -135z"/>
<path d="M8130 7149 l0 -124 158 -126 c86 -69 358 -288 604 -485 246 -198 482
-381 525 -407 102 -61 229 -112 367 -147 131 -33 289 -60 1056 -180 316 -50
587 -93 603 -96 24 -5 27 -3 27 19 0 30 21 25 -280 72 -1185 187 -1462 255
-1719 421 -117 76 -206 153 -936 814 -204 184 -378 341 -388 349 -16 13 -17 5
-17 -110z"/>
<path d="M8132 6714 l3 -118 210 -145 c489 -336 1027 -692 1114 -735 119 -60
298 -120 449 -151 64 -13 281 -45 482 -70 338 -42 971 -127 1048 -141 32 -5
33 -4 30 23 l-3 28 -550 76 c-752 106 -909 135 -1137 210 -237 78 -361 149
-648 367 -210 160 -901 694 -958 740 l-43 35 3 -119z"/>
<path d="M8132 6295 l3 -107 95 -55 c457 -264 1083 -610 1203 -664 204 -92
478 -165 767 -204 117 -15 1226 -135 1254 -135 10 0 16 9 16 25 0 14 -6 25
-13 25 -35 0 -1157 143 -1262 161 -154 26 -295 59 -418 99 -263 84 -428 177
-1232 695 -214 138 -396 255 -403 259 -10 6 -12 -14 -10 -99z"/>
<path d="M8132 5878 l3 -102 260 -119 c460 -210 967 -433 1070 -472 55 -21
159 -52 230 -70 201 -51 219 -53 1220 -150 259 -25 489 -48 513 -51 40 -6 42
-5 42 19 0 23 -4 25 -67 32 -611 61 -1215 134 -1382 166 -349 67 -542 140
-1006 381 -350 182 -792 415 -843 445 l-43 24 3 -103z"/>
<path d="M8130 5445 c0 -52 2 -95 4 -95 1 0 243 -81 537 -181 1021 -345 977
-336 2104 -429 336 -27 629 -52 653 -55 39 -4 42 -3 42 20 0 29 53 21 -585 85
-1197 121 -1203 122 -1929 414 -182 74 -441 179 -575 235 -134 56 -245 101
-247 101 -2 0 -4 -43 -4 -95z"/>
<path d="M8130 5013 l0 -89 338 -78 c1011 -233 1079 -245 1637 -291 162 -13
1333 -95 1358 -95 5 0 7 10 5 23 -3 20 -10 23 -93 29 -49 4 -270 21 -490 37
-570 44 -720 58 -910 86 -405 60 -753 145 -1520 372 -159 47 -298 88 -307 90
-16 5 -18 -4 -18 -84z"/>
<path d="M8130 4586 l0 -85 33 -6 c131 -22 1119 -130 1372 -149 340 -26 1771
-106 1892 -106 36 0 43 3 43 20 0 12 -8 21 -22 24 -13 3 -304 23 -648 45 -648
43 -984 73 -1300 116 -189 27 -1321 211 -1352 221 -16 5 -18 -3 -18 -80z"/>
<path d="M8130 4136 l0 -86 1670 0 1670 0 0 25 c0 21 -5 25 -29 25 -15 0 -374
13 -797 30 -816 31 -1101 41 -1869 65 -264 8 -517 17 -562 20 l-83 6 0 -85z"/>
<path d="M3080 3551 c0 -140 4 -240 11 -260 12 -34 36 -44 90 -39 30 3 34 7
37 35 3 26 -1 32 -20 35 l-23 3 -3 228 -2 227 -45 0 -45 0 0 -229z"/>
<path d="M5500 3746 c-15 -19 -9 -56 11 -69 9 -5 28 -7 42 -3 52 13 42 86 -12
86 -16 0 -34 -7 -41 -14z"/>
<path d="M6297 3753 c-4 -3 -7 -21 -7 -39 0 -27 5 -35 25 -40 48 -12 73 13 61
61 -5 20 -13 25 -40 25 -18 0 -36 -3 -39 -7z"/>
<path d="M7181 3746 c-16 -19 -11 -56 10 -69 9 -5 28 -7 43 -3 24 6 27 11 24
44 -3 33 -6 37 -34 40 -18 2 -36 -3 -43 -12z"/>
<path d="M2932 3503 l3 -248 43 -3 42 -3 0 250 0 251 -45 0 -45 0 2 -247z"/>
<path d="M3530 3499 l0 -250 43 3 42 3 5 71 c4 58 10 76 33 103 15 19 29 32
31 30 2 -2 32 -50 66 -106 l61 -103 50 0 c27 0 49 3 49 8 0 8 -36 68 -117 198
l-51 81 84 103 c46 56 84 104 84 106 0 2 -24 4 -53 4 l-54 0 -89 -112 -89
-112 -3 112 -3 112 -44 0 -45 0 0 -251z"/>
<path d="M4423 3611 c-35 -16 -43 -17 -43 -6 0 11 -12 15 -45 15 l-45 0 2
-182 3 -183 43 -3 42 -3 0 134 0 135 40 16 c50 20 65 20 84 0 13 -12 16 -41
16 -150 l0 -135 43 3 42 3 3 132 3 131 39 16 c50 20 65 20 84 0 13 -12 16 -41
16 -150 l0 -135 43 3 42 3 3 85 c2 47 0 118 -3 159 -6 64 -11 79 -35 103 -37
37 -98 38 -162 4 l-45 -24 -21 20 c-29 29 -97 33 -149 9z"/>
<path d="M5023 3610 c-35 -16 -43 -16 -43 -5 0 11 -12 15 -40 15 l-40 0 0
-185 0 -185 40 0 40 0 0 134 0 134 40 16 c49 19 74 20 88 3 7 -8 13 -69 14
-148 l3 -134 43 -3 42 -3 0 134 0 135 40 16 c53 21 77 20 90 -3 5 -11 10 -79
10 -151 l0 -131 43 3 42 3 3 133 c1 73 -2 151 -8 172 -19 71 -93 89 -187 45
-41 -19 -54 -21 -60 -11 -23 39 -95 46 -160 16z"/>
<path d="M5692 3614 c-65 -33 -81 -112 -34 -164 21 -23 42 -33 91 -43 70 -14
94 -34 75 -64 -10 -15 -26 -18 -98 -18 -84 1 -87 0 -93 -24 -8 -33 14 -47 84
-54 126 -13 203 32 203 118 0 62 -40 99 -121 111 -58 9 -79 21 -79 44 0 31 32
41 108 34 67 -6 69 -6 75 17 10 38 -12 50 -99 55 -61 4 -86 1 -112 -12z"/>
<path d="M6020 3619 c-49 -20 -70 -49 -70 -99 0 -76 14 -87 148 -120 37 -10
42 -14 42 -40 0 -36 -19 -43 -112 -38 -67 3 -71 2 -80 -21 -5 -14 -5 -28 0
-33 14 -14 123 -28 166 -21 81 12 116 49 116 122 0 68 -34 93 -157 116 -33 7
-46 25 -37 50 7 17 15 19 109 19 68 1 70 2 73 28 3 23 -2 28 -35 37 -47 13
-130 13 -163 0z"/>
<path d="M6511 3612 c-61 -30 -76 -62 -79 -165 -3 -107 12 -149 67 -181 46
-26 144 -27 187 -2 54 32 69 69 69 171 0 104 -17 146 -75 176 -44 24 -124 25
-169 1z m133 -78 c22 -22 29 -56 24 -121 -6 -64 -30 -93 -79 -93 -51 0 -69 30
-69 113 0 92 15 117 70 117 22 0 45 -7 54 -16z"/>
<path d="M6943 3617 c-17 -7 -35 -15 -39 -19 -12 -13 -24 -9 -24 8 0 12 -9 14
-42 12 l-43 -3 0 -180 0 -180 43 -3 42 -3 0 134 0 135 47 16 c93 32 97 27 103
-141 l5 -138 43 -3 42 -3 0 144 c0 80 -5 158 -11 176 -19 55 -91 75 -166 48z"/>
<path d="M3922 3461 c3 -151 4 -161 27 -185 40 -42 95 -43 194 -1 12 5 17 3
17 -10 0 -13 8 -16 43 -13 l42 3 3 183 2 182 -45 0 -45 0 0 -134 0 -134 -50
-17 c-47 -16 -53 -16 -75 -1 -25 16 -25 19 -25 151 l0 135 -46 0 -46 0 4 -159z"/>
<path d="M5494 3607 c-2 -7 -3 -89 -2 -182 l3 -170 43 -3 42 -3 0 185 0 186
-40 0 c-24 0 -43 -5 -46 -13z"/>
<path d="M6290 3416 c0 -223 -2 -229 -58 -242 -51 -11 -53 -12 -46 -41 10 -41
17 -45 70 -37 65 9 110 53 119 115 3 24 5 125 3 224 l-3 180 -42 3 -43 3 0
-205z"/>
<path d="M7174 3607 c-2 -7 -3 -89 -2 -182 l3 -170 43 -3 42 -3 0 185 0 186
-40 0 c-24 0 -43 -5 -46 -13z"/>
<path d="M3230 3495 l0 -36 123 3 122 3 0 30 0 30 -122 3 -123 3 0 -36z"/>
<path d="M2930 2710 l0 -250 156 0 155 0 -3 38 -3 37 -107 3 -108 3 0 69 0 70
95 0 95 0 0 40 0 40 -95 0 -95 0 0 60 0 59 108 3 107 3 0 35 0 35 -152 3 -153
3 0 -251z"/>
<path d="M3955 2828 c-16 -6 -39 -17 -50 -24 -27 -19 -35 -17 -35 6 0 17 -7
20 -40 20 l-40 0 0 -185 0 -185 40 0 40 0 0 125 c0 140 -4 133 88 155 48 11
52 14 52 40 0 32 -9 60 -19 59 -3 0 -19 -5 -36 -11z"/>
<path d="M4110 2823 c-67 -35 -99 -119 -84 -220 15 -110 58 -148 166 -148 116
0 159 52 159 190 1 93 -13 131 -62 167 -38 29 -134 34 -179 11z m129 -82 c41
-41 34 -178 -9 -201 -29 -16 -65 -12 -91 9 -21 17 -24 27 -24 94 0 60 4 79 19
96 25 27 79 28 105 2z"/>
<path d="M4545 2828 c-16 -6 -36 -15 -43 -21 -9 -7 -16 -5 -25 7 -9 12 -23 17
-47 14 l-35 -3 0 -250 0 -250 43 -3 42 -3 0 69 0 69 78 -1 c125 -2 162 42 162
195 0 122 -32 177 -107 185 -21 2 -51 -2 -68 -8z m65 -88 c16 -16 20 -33 20
-93 0 -94 -14 -117 -75 -117 -74 0 -75 1 -75 105 l0 93 43 15 c56 21 64 20 87
-3z"/>
<path d="M4860 2829 c-71 -30 -107 -110 -97 -219 7 -78 29 -117 80 -141 48
-21 94 -24 166 -8 59 12 65 18 52 52 -9 23 -12 24 -83 19 -82 -5 -112 9 -124
61 l-6 27 110 0 c130 0 138 5 127 77 -9 61 -27 95 -61 118 -32 20 -129 29
-164 14z m113 -78 c4 -4 11 -22 16 -39 l10 -32 -75 0 c-41 0 -74 2 -74 4 0 22
27 70 44 76 22 9 65 4 79 -9z"/>
<path d="M5192 2831 c-44 -11 -56 -24 -47 -50 6 -19 14 -21 95 -21 78 0 91 -2
100 -19 23 -44 14 -51 -60 -51 -93 0 -136 -18 -156 -67 -21 -49 -13 -118 15
-147 28 -28 110 -29 170 -2 30 14 45 16 49 8 12 -19 59 -31 89 -23 34 9 43 45
15 60 -17 9 -20 26 -25 128 -6 135 -9 145 -45 169 -30 20 -147 28 -200 15z
m156 -238 c-3 -36 -6 -39 -56 -56 -68 -22 -95 -11 -90 36 4 39 35 57 101 57
l48 0 -3 -37z"/>
<path d="M3241 2813 c0 -10 26 -92 57 -183 l57 -165 42 -3 41 -3 28 85 c15 47
30 83 33 80 4 -3 18 -40 32 -82 l26 -77 40 -3 41 -3 61 183 60 183 -40 3 c-23
2 -43 1 -45 -1 -3 -2 -21 -62 -41 -131 l-36 -128 -40 131 -40 131 -38 0 c-42
0 -49 -13 -29 -64 7 -19 2 -44 -19 -108 -17 -49 -31 -77 -35 -68 -3 8 -21 65
-39 125 l-33 110 -42 3 c-35 3 -42 0 -41 -15z"/>
<path d="M2690 1960 l0 -140 2380 0 2380 0 0 140 0 140 -2380 0 -2380 0 0
-140z"/>
</g>
</svg>
